<svg width="25" height="25" viewBox="0 0 25 25" fill="none" xmlns="http://www.w3.org/2000/svg">
<path d="M0 20.8333H10.4167V22.9167H0V20.8333ZM0 14.5833H10.4167V16.6667H0V14.5833ZM22.9167 10.4167H2.08333C1.5308 10.4167 1.00089 10.1972 0.610194 9.80647C0.219493 9.41577 0 8.88587 0 8.33333V2.08333C0 1.5308 0.219493 1.00089 0.610194 0.610194C1.00089 0.219493 1.5308 0 2.08333 0H22.9167C23.4692 0 23.9991 0.219493 24.3898 0.610194C24.7805 1.00089 25 1.5308 25 2.08333V8.33333C25 8.88587 24.7805 9.41577 24.3898 9.80647C23.9991 10.1972 23.4692 10.4167 22.9167 10.4167ZM2.08333 2.08333V8.33333H22.9167V2.08333H2.08333ZM22.9167 25H16.6667C16.1141 25 15.5842 24.7805 15.1935 24.3898C14.8028 23.9991 14.5833 23.4692 14.5833 22.9167V16.6667C14.5833 16.1141 14.8028 15.5842 15.1935 15.1935C15.5842 14.8028 16.1141 14.5833 16.6667 14.5833H22.9167C23.4692 14.5833 23.9991 14.8028 24.3898 15.1935C24.7805 15.5842 25 16.1141 25 16.6667V22.9167C25 23.4692 24.7805 23.9991 24.3898 24.3898C23.9991 24.7805 23.4692 25 22.9167 25ZM16.6667 16.6667V22.9167H22.9167V16.6667H16.6667Z" fill="#FAA019" fill-opacity="0.8"/>
</svg>
